<?xml version="1.0"?>
<svg xmlns="http://www.w3.org/2000/svg" viewBox="0 0 512 512" width="512" height="512"><g id="Solid"><path d="M346.422,320l26.016,17.344a8,8,0,0,1,3.151,9.186L363.1,384h22.654l13.566-54.265a56.328,56.328,0,0,1-18.4-9.735Z"/><path d="M152,336a8,8,0,0,1-1.054,3.969L125.786,384h21.571L176,333.875V320H152Z"/><path d="M461.8,170.486A10.829,10.829,0,0,1,469.457,152H488a8,8,0,0,0,0-16H469.457a26.829,26.829,0,0,0-18.971,45.8l26.343,26.342A10.76,10.76,0,0,1,480,215.8a10.828,10.828,0,0,1-17.761,8.319l-8.217-6.847A40.073,40.073,0,0,0,428.415,208h-2.506A75.941,75.941,0,0,0,364,176a92.581,92.581,0,0,1-55.2-18.4l-12.276-9.207a101.967,101.967,0,0,0-130.753,7.03c-.084.078-.169.155-.257.23L85.652,224h60.582l1.117-3.351A30.16,30.16,0,0,1,176,200a8,8,0,0,1,8,8v32a32.036,32.036,0,0,1-32,32H128V256h24a16.019,16.019,0,0,0,16-16V218.463a14.177,14.177,0,0,0-5.47,7.245l-2.941,8.822A8,8,0,0,1,152,240H48a8,8,0,0,1-7.589-5.47l-2.941-8.822A14.177,14.177,0,0,0,32,218.463V240a16.019,16.019,0,0,0,16,16H64a8,8,0,0,1,8,8v64H92.687l21.656-21.657A8,8,0,0,1,120,304h96V288h16v48a8,8,0,0,1-1.054,3.969L205.786,384h21.571L256,333.875V272h16v32h95.252A56.071,56.071,0,0,1,360,276.287V264h16v12.287A39.755,39.755,0,0,0,404.506,314.6L450.3,328.337a8,8,0,0,1,5.393,9.861L442.606,384h22.977l13.655-61.448-36.895-36.9A8,8,0,0,1,440,280V252a75.6,75.6,0,0,0-5-27.06,24.015,24.015,0,0,1,8.776,4.623L452,236.41a26.647,26.647,0,0,0,17.108,6.259,26.945,26.945,0,0,0,11.447-2.574,26.828,26.828,0,0,0,7.591-43.266Z"/></g></svg>
